# xmcd CD database file
#
# Track frame offsets:
#	150
#	15544
#	29091
#	45144
#	56008
#	69136
#	80242
#	94924
#	109295
#	127656
#	143363
#	155483
#	169066
#	181999
#	195650
#	210799
#
# Disc length: 2978 seconds
#
# Revision: 0
# Processed by: cddbd v1.4PL0 Copyright (c) Steve Scherf et al.
# Submitted via: CDex 1.50Beta3
#
DISCID=c80ba010
DTITLE=Don Williams - The Ultimate Hit Collection Disc 02
DYEAR=1900
DGENRE=Country
TTITLE0=I Recall A Gypsy Woman
TTITLE1=The Shelter Of Your Eyes
TTITLE2=I've Been Loved By The  Best
TTITLE3=Turn Down The Light
TTITLE4=Lay Down Beside Me
TTITLE5=It Must Be Love
TTITLE6=She's In Love With A Rodeo Man
TTITLE7=Listen To The Radio
TTITLE8=I Believe In You
TTITLE9=Till The Rivers All Run Dry
TTITLE10=Millers Cave
TTITLE11=I Wouldn't Want To Live
TTITLE12=True Love
TTITLE13=Stay Young
TTITLE14=It's Good To See You
TTITLE15=You're My Best Friend
EXTD=
EXTT0=
EXTT1=
EXTT2=
EXTT3=
EXTT4=
EXTT5=
EXTT6=
EXTT7=
EXTT8=
EXTT9=
EXTT10=
EXTT11=
EXTT12=
EXTT13=
EXTT14=
EXTT15=
PLAYORDER=
